/* XPM */
static char *_3e1d60043b44f8ea1abf6ab895a90d93F8n6YrfUdm4qvBf[] = {
/* columns rows colors chars-per-pixel */
"100 100 35 1 ",
"  c black",
". c #171716",
"X c #1B1B1A",
"o c #1C1C1B",
"O c #20201F",
"+ c #212120",
"@ c #222221",
"# c #272726",
"$ c #2A2A29",
"% c #3B3B3A",
"& c #3E3E3C",
"* c #414140",
"= c #434343",
"- c gray27",
"; c #494948",
": c #555555",
"> c #5A5A5A",
", c #666665",
"< c gray40",
"1 c DimGray",
"2 c #6F6F6E",
"3 c #929292",
"4 c #949493",
"5 c #B4B4B4",
"6 c #C5C5C5",
"7 c #D8D8D8",
"8 c gray87",
"9 c gray88",
"0 c #E7E7E7",
"q c gray91",
"w c #EEEEEE",
"e c #EFEFEF",
"r c #F6F6F6",
"t c gray99",
"y c #FDFDFD",
/* pixels */
"ooooooooooooooooooooooooooooooooooooooooooooooooO>8yyyyyyyyyyyyyyyyyyyyyyyyyyyyyyyyyyyyyyyyyyyyyyyyy",
"ooooooooooooooooooooooooooooooooooooooooooooooooO>8yyyyyyyyyyyyyyyyyyyyyyyyyyyyyyyyyyyyyyyyyyyyyyyyy",
"ooooooooooooooooooooooooooooooooooooooooooooooooO>8yyyyyyyyyyyyyyyyyyyyyyyyyyyyyyyyyyyyyyyyyyyyyyyyy",
"ooooooooooooooooooooooooooooooooooooooooooooooooO>8yyyyyyyyyyyyyyyyyyyyyyyyyyyyyyyyyyyyyyyyyyyyyyyyy",
"ooooooooooooooooooooooooooooooooooooooooooooooooO>8yyyyyyyyyyyyyyyyyyyyyyyyyyyyyyyyyyyyyyyyyyyyyyyyy",
"ooooooooooooooooooooooooooooooooooooooooooooooooO>8yyyyyyyyyyyyyyyyyyyyyyyyyyyyyyyyyyyyyyyyyyyyyyyyy",
"ooooooooooooooooooooooooooooooooooooooooooooooooO>8yyyyyyyyyyyyyyyyyyyyyyyyyyyyyyyyyyyyyyyyyyyyyyyyy",
"ooooooooooooooooooooooooooooooooooooooooooooooooO>8yyyyyyyyyyyyyyyyyyyyyyyyyyyyyyyyyyyyyyyyyyyyyyyyy",
"oooooooooooooooooooooooooooooooooooooooooooooooo+>8yyyyyyyyyyyyyyyyyyyyyyyyyyyyyyyyyyyyyyyyyyyyyyyyy",
"ooooooooooooooooooooooooooooooooooooooooooooooooO>8yyyyyyyyyyyyyyyyyyyyyyyyyyyyyyyyyyyyyyyyyyyyyyyyy",
"ooooooooooooooooooooooooooooooooooooooooooooooooO>8yyyyyyyyyyyyyyyyyyyyyyyyyyyyyyyyyyyyyyyyyyyyyyyyy",
"ooooooooooooooooooooooooooooooooooooooooooooooooO>9yyyyyyyyyyyyyyyyyyyyyyyyyyyyyyyyyyyyyyyyyyyyyyyyy",
"ooooooooooooooooooooooooooooooooooooooooooooooooO>8yyyyyyyyyyyyyyyyyyyyyyyyyyyyyyyyyyyyyyyyyyyyyyyyy",
"ooooooooooooooooooooooooooooooooooooooooooooooooO>8yyyyyyyyyyyyyyyyyyyyyyyyyyyyyyyyyyyyyyyyyyyyyyyyy",
"ooooooooooooooooooooooooooooooooooooooooooooooooO>8yyyyyyyyyyyyyyyyyyyyyyyyyyyyyyyyyyyyyyyyyyyyyyyyy",
"ooooooooooooooooooooooooooooooooooooooooooooooooO>8yyyyyyyyyyyyyyyyyyyyyyyyyyyyyyyyyyyyyyyyyyyyyyyyy",
"ooooooooooooooooooooooooooooooooooooooooooooooooO>8yyyyyyyyyyyyyyyyyyyyyyyyyyyyyyyyyyyyyyyyyyyyyyyyy",
"ooooooooooooooooooooooooooooooooooooooooooooooooO>8yyyyyyyyyyyyyyyyyyyyyyyyyyyyyyyyyyyyyyyyyyyyyyyyy",
"ooooooooooooooooooooooooooooooooooooooooooooooooO>8yyyyyyyyyyyyyyyyyyyyyyyyyyyyyyyyyyyyyyyyyyyyyyyyy",
"ooooooooooooooooooooooooooooooooooooooooooooooooO>8yyyyyyyyyyyyyyyyyyyyyyyyyyyyyyyyyyyyyyyyyyyyyyyyy",
"ooooooooooooooooooooooooooooooooooooooooooooooooO>8yyyyyyyyyyyyyyyyyyyyyyyyyyyyyyyyyyyyyyyyyyyyyyyyy",
"ooooooooooooooooooooooooooooooooooooooooooooooooO>8yyyyyyyyyyyyyyyyyyyyyyyyyyyyyyyyyyyyyyyyyyyyyyyyy",
"ooooooooooooooooooooooooooooooooooooooooooooooooO>8yyyyyyyyyyyyyyyyyyyyyyyyyyyyyyyyyyyyyyyyyyyyyyyyy",
"ooooooooooooooooooooooooooooooooooooooooooooooooO>8yyyyyyyyyyyyyyyyyyyyyyyyyyyyyyyyyyyyyyyyyyyyyyyyy",
"oooooooooooooooooooooooooooooooooooooooooooooooo+>8yyyyyyyyyyyyyyyyyyyyyyyyyyyyyyyyyyyyyyyyyyyyyyyyy",
"ooooooooooooooooooooooooooooooooooooooooooooooooO>8yyyyyyyyyyyyyyyyyyyyyyyyyyyyyyyyyyyyyyyyyyyyyyyyy",
"ooooooooooooooooooooooooooooooooooooooooooooooooO>8yyyyyyyyyyyyyyyyyyyyyyyyyyyyyyyyyyyyyyyyyyyyyyyyy",
"ooooooooooooooooooooooooooooooooooooooooooooooooO>9yyyyyyyyyyyyyyyyyyyyyyyyyyyyyyyyyyyyyyyyyyyyyyyyy",
"ooooooooooooooooooooooooooooooooooooooooooooooooO>8yyyyyyyyyyyyyyyyyyyyyyyyyyyyyyyyyyyyyyyyyyyyyyyyy",
"ooooooooooooooooooooooooooooooooooooooooooooooooO>8yyyyyyyyyyyyyyyyyyyyyyyyyyyyyyyyyyyyyyyyyyyyyyyyy",
"ooooooooooooooooooooooooooooooooooooooooooooooooO>8yyyyyyyyyyyyyyyyyyyyyyyyyyyyyyyyyyyyyyyyyyyyyyyyy",
"ooooooooooooooooooooooooooooooooooooooooooooooooO>8yyyyyyyyyyyyyyyyyyyyyyyyyyyyyyyyyyyyyyyyyyyyyyyyy",
"ooooooooooooooooooooooooooooooooooooooooooooooooO>8yyyyyyyyyyyyyyyyyyyyyyyyyyyyyyyyyyyyyyyyyyyyyyyyy",
"ooooooooooooooooooooooooooooooooooooooooooooooooO>8yyyyyyyyyyyyyyyyyyyyyyyyyyyyyyyyyyyyyyyyyyyyyyyyy",
"ooooooooooooooooooooooooooooooooooooooooooooooooO>8yyyyyyyyyyyyyyyyyyyyyyyyyyyyyyyyyyyyyyyyyyyyyyyyy",
"ooooooooooooooooooooooooooooooooooooooooooooooooO>8yyyyyyyyyyyyyyyyyyyyyyyyyyyyyyyyyyyyyyyyyyyyyyyyy",
"ooooooooooooooooooooooooooooooooooooooooooooooooO>8yyyyyyyyyyyyyyyyyyyyyyyyyyyyyyyyyyyyyyyyyyyyyyyyy",
"ooooooooooooooooooooooooooooooooooooooooooooooooO>8yyyyyyyyyyyyyyyyyyyyyyyyyyyyyyyyyyyyyyyyyyyyyyyyy",
"ooooooooooooooooooooooooooooooooooooooooooooooooO>8yyyyyyyyyyyyyyyyyyyyyyyyyyyyyyyyyyyyyyyyyyyyyyyyy",
"ooooooooooooooooooooooooooooooooooooooooooooooooO>8yyyyyyyyyyyyyyyyyyyyyyyyyyyyyyyyyyyyyyyyyyyyyyyyy",
"oooooooooooooooooooooooooooooooooooooooooooooooo+>8yyyyyyyyyyyyyyyyyyyyyyyyyyyyyyyyyyyyyyyyyyyyyyyyy",
"ooooooooooooooooooooooooooooooooooooooooooooooooO>8yyyyyyyyyyyyyyyyyyyyyyyyyyyyyyyyyyyyyyyyyyyyyyyyy",
"ooooooooooooooooooooooooooooooooooooooooooooooooO>8yyyyyyyyyyyyyyyyyyyyyyyyyyyyyyyyyyyyyyyyyyyyyyyyy",
"ooooooooooooooooooooooooooooooooooooooooooooooooO>9yyyyyyyyyyyyyyyyyyyyyyyyyyyyyyyyyyyyyyyyyyyyyyyyy",
"ooooooooooooooooooooooooooooooooooooooooooooooooO>8yyyyyyyyyyyyyyyyyyyyyyyyyyyyyyyyyyyyyyyyyyyyyyyyy",
"ooooooooooooooooooooooooooooooooooooooooooooooooO>8yyyyyyyyyyyyyyyyyyyyyyyyyyyyyyyyyyyyyyyyyyyyyyyyy",
"ooooooooooooooooooooooooooooooooooooooooooooooooO>8yyyyyyyyyyyyyyyyyyyyyyyyyyyyyyyyyyyyyyyyyyyyyyyyy",
"ooooooooooooooooooooooooooooooooooooooooooooooooO>8yyyyyyyyyyyyyyyyyyyyyyyyyyyyyyyyyyyyyyyyyyyyyyyyy",
"                                                 :9yyyyyyyyyyyyyyyyyyyyyyyyyyyyyyyyyyyyyyyyyyyyyyyyy",
"3333343333343333343333343333343333343334333433343456666666666666666666666666666666666666666666666666",
"qqqqqqqqqqqqqqqqqqqqqqqqqqqqqqqqqqqqqqqqqqqqqqqq071&%%%%&%%%%%&%%%%%&%%%%%&%%%%%&%%%&%%%&%%%&%%%%%%*",
"yyyyyyyyyyyyyyyyyyyyyyyyyyyyyyyyyyyyyyyyyyyyyyyyye,O...o...........................................#",
"yyyyyyyyyyyyyyyyyyyyyyyyyyyyyyyyyyyyyyyyyyyyyyyyye,+ooooooooooooooooooooooooooooooooooooooooooooXoo$",
"yyyyyyyyyyyyyyyyyyyyyyyyyyyyyyyyyyyyyyyyyyyyyyyyye1+ooooooooooooooooooooooooooooooooooooooooooooooo$",
"yyyyyyyyyyyyyyyyyyyyyyyyyyyyyyyyyyyyyyyyyyyyyyyyye,+ooooooooooooooooooooooooooooooooooooooooooooooo$",
"yyyyyyyyyyyyyyyyyyyyyyyyyyyyyyyyyyyyyyyyyyyyyyyyye,+ooooooooooooooooooooooooooooooooooooooooooooooo$",
"yyyyyyyyyyyyyyyyyyyyyyyyyyyyyyyyyyyyyyyyyyyyyyyyte<+ooooooooooooooooooooooooooooooooooooooooooooooo$",
"yyyyyyyyyyyyyyyyyyyyyyyyyyyyyyyyyyyyyyyyyyyyyyyytr<+ooooooooooooooooooooooooooooooooooooooooooooooo$",
"yyyyyyyyyyyyyyyyyyyyyyyyyyyyyyyyyyyyyyyyyyyyyyyytr,+ooooooooooooooooooooooooooooooooooooooooooooooo$",
"yyyyyyyyyyyyyyyyyyyyyyyyyyyyyyyyyyyyyyyyyyyyyyyyte,+ooooooooooooooooooooooooooooooooooooooooooooooo$",
"yyyyyyyyyyyyyyyyyyyyyyyyyyyyyyyyyyyyyyyyyyyyyyyyye,Oooooooooooooooooooooooooooooooooooooooooooooooo$",
"yyyyyyyyyyyyyyyyyyyyyyyyyyyyyyyyyyyyyyyyyyyyyyyyye,+ooooooooooooooooooooooooooooooooooooooooooooooo$",
"yyyyyyyyyyyyyyyyyyyyyyyyyyyyyyyyyyyyyyyyyyyyyyyyye,+ooooooooooooooooooooooooooooooooooooooooooooooo$",
"yyyyyyyyyyyyyyyyyyyyyyyyyyyyyyyyyyyyyyyyyyyyyyyyye,+ooooooooooooooooooooooooooooooooooooooooooooooo$",
"yyyyyyyyyyyyyyyyyyyyyyyyyyyyyyyyyyyyyyyyyyyyyyyyyr,+Xoooooooooooooooooooooooooooooooooooooooooooooo$",
"yyyyyyyyyyyyyyyyyyyyyyyyyyyyyyyyyyyyyyyyyyyyyyyyte,+Xoooooooooooooooooooooooooooooooooooooooooooooo$",
"yyyyyyyyyyyyyyyyyyyyyyyyyyyyyyyyyyyyyyyyyyyyyyyyye,+ooooooooooooooooooooooooooooooooooooooooooooooo$",
"yyyyyyyyyyyyyyyyyyyyyyyyyyyyyyyyyyyyyyyyyyyyyyyyye,+ooooooooooooooooooooooooooooooooooooooooooooooo$",
"yyyyyyyyyyyyyyyyyyyyyyyyyyyyyyyyyyyyyyyyyyyyyyyyte<@ooooooooooooooooooooooooooooooooooooooooooooooo$",
"yyyyyyyyyyyyyyyyyyyyyyyyyyyyyyyyyyyyyyyyyyyyyyyytr<@ooooooooooooooooooooooooooooooooooooooooooooooo$",
"yyyyyyyyyyyyyyyyyyyyyyyyyyyyyyyyyyyyyyyyyyyyyyyyte<@ooooooooooooooooooooooooooooooooooooooooooooooo$",
"yyyyyyyyyyyyyyyyyyyyyyyyyyyyyyyyyyyyyyyyyyyyyyyyte<+ooooooooooooooooooooooooooooooooooooooooooooooo$",
"yyyyyyyyyyyyyyyyyyyyyyyyyyyyyyyyyyyyyyyyyyyyyyyyye,+ooooooooooooooooooooooooooooooooooooooooooooooo$",
"yyyyyyyyyyyyyyyyyyyyyyyyyyyyyyyyyyyyyyyyyyyyyyyyye,+ooooooooooooooooooooooooooooooooooooooooooooooo$",
"yyyyyyyyyyyyyyyyyyyyyyyyyyyyyyyyyyyyyyyyyyyyyyyyye<+ooooooooooooooooooooooooooooooooooooooooooooooo$",
"yyyyyyyyyyyyyyyyyyyyyyyyyyyyyyyyyyyyyyyyyyyyyyyyye1+ooooooooooooooooooooooooooooooooooooooooooooooo$",
"yyyyyyyyyyyyyyyyyyyyyyyyyyyyyyyyyyyyyyyyyyyyyyyyye<@ooooooooooooooooooooooooooooooooooooooooooooooo$",
"yyyyyyyyyyyyyyyyyyyyyyyyyyyyyyyyyyyyyyyyyyyyyyyyye<+ooooooooooooooooooooooooooooooooooooooooooooooo$",
"yyyyyyyyyyyyyyyyyyyyyyyyyyyyyyyyyyyyyyyyyyyyyyyyye,+ooooooooooooooooooooooooooooooooooooooooooooooo$",
"yyyyyyyyyyyyyyyyyyyyyyyyyyyyyyyyyyyyyyyyyyyyyyyyye,+ooooooooooooooooooooooooooooooooooooooooooooooo$",
"yyyyyyyyyyyyyyyyyyyyyyyyyyyyyyyyyyyyyyyyyyyyyyyyte<+ooooooooooooooooooooooooooooooooooooooooooooooo$",
"yyyyyyyyyyyyyyyyyyyyyyyyyyyyyyyyyyyyyyyyyyyyyyyytr<+ooooooooooooooooooooooooooooooooooooooooooooooo$",
"yyyyyyyyyyyyyyyyyyyyyyyyyyyyyyyyyyyyyyyyyyyyyyyyte,+ooooooooooooooooooooooooooooooooooooooooooooooo$",
"yyyyyyyyyyyyyyyyyyyyyyyyyyyyyyyyyyyyyyyyyyyyyyyyye,+ooooooooooooooooooooooooooooooooooooooooooooooo$",
"yyyyyyyyyyyyyyyyyyyyyyyyyyyyyyyyyyyyyyyyyyyyyyyyye,Xooooooooooooooooooooooooooooooooooooooooooooooo$",
"yyyyyyyyyyyyyyyyyyyyyyyyyyyyyyyyyyyyyyyyyyyyyyyyyr,+ooooooooooooooooooooooooooooooooooooooooooooooo$",
"yyyyyyyyyyyyyyyyyyyyyyyyyyyyyyyyyyyyyyyyyyyyyyyyye,+ooooooooooooooooooooooooooooooooooooooooooooooo$",
"yyyyyyyyyyyyyyyyyyyyyyyyyyyyyyyyyyyyyyyyyyyyyyyyye1+ooooooooooooooooooooooooooooooooooooooooooooooo$",
"yyyyyyyyyyyyyyyyyyyyyyyyyyyyyyyyyyyyyyyyyyyyyyyyye<+ooooooooooooooooooooooooooooooooooooooooooooooo$",
"yyyyyyyyyyyyyyyyyyyyyyyyyyyyyyyyyyyyyyyyyyyyyyyyye<+ooooooooooooooooooooooooooooooooooooooooooooooo$",
"yyyyyyyyyyyyyyyyyyyyyyyyyyyyyyyyyyyyyyyyyyyyyyyyye,+ooooooooooooooooooooooooooooooooooooooooooooooo$",
"yyyyyyyyyyyyyyyyyyyyyyyyyyyyyyyyyyyyyyyyyyyyyyyyye,+ooooooooooooooooooooooooooooooooooooooooooooooo$",
"yyyyyyyyyyyyyyyyyyyyyyyyyyyyyyyyyyyyyyyyyyyyyyyyte<@ooooooooooooooooooooooooooooooooooooooooooooooo$",
"yyyyyyyyyyyyyyyyyyyyyyyyyyyyyyyyyyyyyyyyyyyyyyyytr<@ooooooooooooooooooooooooooooooooooooooooooooooo$",
"yyyyyyyyyyyyyyyyyyyyyyyyyyyyyyyyyyyyyyyyyyyyyyyttr<@ooooooooooooooooooooooooooooooooooooooooooooooo$",
"yyyyyyyyyyyyyyyyyyyyyyyyyyyyyyyyyyyyyyyyyyyyyyytte<@ooooooooooooooooooooooooooooooooooooooooooooooo$",
"yyyyyyyyyyyyyyyyyyyyyyyyyyyyyyyyyyyyyyyyyyyyyyyyye,+ooooooooooooooooooooooooooooooooooooooooooooooo$",
"yyyyyyyyyyyyyyyyyyyyyyyyyyyyyyyyyyyyyyyyyyyyyyyyye,+ooooooooooooooooooooooooooooooooooooooooooooooo$",
"yyyyyyyyyyyyyyyyyyyyyyyyyyyyyyyyyyyyyyyyyyyyyyyyye,+ooXXXXXXXXXXXoooXXXXXXXXXXXXXXXXXXXXXXXXXXXXXXX$",
"rrryrrtrtrrrrrrtrrtrtrrrrrrtrrtrrrrtrrtrtrrrrrrtrq2-===============================================;"
};
