/* XPM */
static char *_221d47d2b134b8e8dcb305ad5ad937fjh6J3UTa3Fajfh3H[] = {
/* columns rows colors chars-per-pixel */
"10 10 2 1 ",
"  c #1C1C1B",
". c #FEFEFE",
/* pixels */
"     .....",
"     .....",
"     .....",
"     .....",
"     .....",
".....     ",
".....     ",
".....     ",
".....     ",
".....     "
};
